Coordinates
version=1
nRows=78
nColumns=6
inDegrees=yes

Units are S.I. units (second, meters, Newtons, ...)
If the header above contains a line with 'inDegrees', this indicates whether rotational values are in degrees (yes) or radians (no).

endheader
time	foot_tx	hip_flexion_r	knee_angle_r	ankle_angle_r	lumbar
     20.20000000	      0.27601097	     31.63464663	    -22.46803717	      7.17906613	     -7.66900769
     20.21000000	      0.27621189	     30.33198525	    -21.39890682	      6.92680153	     -7.32568641
     20.22000000	      0.27639852	     29.07983573	    -20.34939861	      6.67807691	     -6.94663133
     20.23000000	      0.27656977	     27.88205253	    -19.32361618	      6.43503650	     -6.53072453
     20.24000000	      0.27672468	     26.73857456	    -18.32462142	      6.19954695	     -6.08075498
     20.25000000	      0.27685991	     25.64489355	    -17.35617613	      5.97410032	     -5.60526173
     20.26000000	      0.27698369	     24.60856283	    -16.41404447	      5.75505289	     -5.09689172
     20.27000000	      0.27708665	     23.62228930	    -15.50571096	      5.54784231	     -4.56742583
     20.28000000	      0.27717280	     22.68694474	    -14.62929874	      5.35097957	     -4.01727304
     20.29000000	      0.27723892	     21.80137340	    -13.78933691	      5.16693380	     -3.45396157
     20.30000000	      0.27728924	     20.96004138	    -12.98541080	      4.99553687	     -2.88260140
     20.31000000	      0.27732751	     20.15717293	    -12.21718041	      4.83632741	     -2.31315217
     20.32000000	      0.27735172	     19.39527347	    -11.49111648	      4.69221453	     -1.74950625
     20.33000000	      0.27736182	     18.67459456	    -10.81065415	      4.56367499	     -1.19829353
     20.34000000	      0.27736531	     17.99417886	    -10.17164444	      4.44608294	     -0.66641158
     20.35000000	      0.27734697	     17.36282548	     -9.58045136	      4.34187408	     -0.15282640
     20.36000000	      0.27730566	     16.77807483	     -9.03058963	      4.24831689	      0.34461171
     20.37000000	      0.27724420	     16.26610386	     -8.51679972	      4.16251776	      0.86372737
     20.38000000	      0.27715412	     15.76644417	     -8.03228482	      4.08644067	      1.34343661
     20.39000000	      0.27704584	     15.29056769	     -7.57008371	      4.01640785	      1.80469657
     20.40000000	      0.27691741	     14.83661517	     -7.13063918	      3.95382076	      2.24839553
     20.41000000	      0.27677160	     14.40250201	     -6.71231518	      3.89809647	      2.67423775
     20.42000000	      0.27661251	     13.98915989	     -6.31399229	      3.84794120	      3.08305981
     20.43000000	      0.27644342	     13.59701502	     -5.93713865	      3.80333682	      3.47319220
     20.44000000	      0.27627056	     13.22480529	     -5.58124313	      3.76328344	      3.84296214
     20.45000000	      0.27609875	     12.87227955	     -5.24609492	      3.72730720	      4.19297739
     20.46000000	      0.27593131	     12.53850543	     -4.93089804	      3.69494851	      4.52402796
     20.47000000	      0.27577014	     12.22236851	     -4.63417670	      3.66562696	      4.83739113
     20.48000000	      0.27561497	     11.92265964	     -4.35437756	      3.63897177	      5.13463550
     20.49000000	      0.27546336	     11.63810256	     -4.09009158	      3.61487363	      5.41761075
     20.50000000	      0.27531173	     11.36737840	     -3.83981415	      3.59322742	      5.68848905
     20.51000000	      0.27515639	     11.10906276	     -3.60161236	      3.57365812	      5.94971860
     20.52000000	      0.27499375	     10.86163532	     -3.37287837	      3.55535124	      6.20379522
     20.53000000	      0.27482101	     10.62367111	     -3.14999822	      3.53678064	      6.45340035
     20.54000000	      0.27463372	     10.39354821	     -2.92944409	      3.51654518	      6.70023982
     20.55000000	      0.27442843	     10.16934689	     -2.70674024	      3.49260319	      6.94520572
     20.56000000	      0.27420362	      9.95008355	     -2.47690928	      3.46250189	      7.19004782
     20.57000000	      0.27395895	      9.73529270	     -2.24006257	      3.42659794	      7.43393613
     20.58000000	      0.27368781	      9.52437874	     -1.99210168	      3.38326603	      7.67827441
     20.59000000	      0.27340039	      9.31701400	     -1.73916073	      3.33541248	      7.91897739
     20.60000000	      0.27310756	      9.11239319	     -1.48591125	      3.28553065	      8.15513701
     20.61000000	      0.27281942	      8.91585512	     -1.24418864	      3.23967018	      8.38735913
     20.62000000	      0.27254907	      8.72277266	     -1.02073978	      3.20168435	      8.60779173
     20.63000000	      0.27229938	      8.53882639	     -0.82042658	      3.17406889	      8.82101965
     20.64000000	      0.27207253	      8.36063419	     -0.64172113	      3.15597326	      9.02313299
     20.65000000	      0.27186558	      8.19147789	     -0.48319793	      3.14622351	      9.21782824
     20.66000000	      0.27167371	      8.02751408	     -0.34012825	      3.14271189	      9.40668754
     20.67000000	      0.27150146	      7.86814230	     -0.20966749	      3.14280820	      9.58567675
     20.68000000	      0.27134194	      7.71206213	     -0.08802290	      3.14509611	      9.75669902
     20.69000000	      0.27119662	      7.55855709	      0.02500736	      3.14948845	      9.91961133
     20.70000000	      0.27106729	      7.41088267	      0.12928281	      3.15583102	     10.07835817
     20.71000000	      0.27095513	      7.26856952	      0.22365995	      3.16458648	     10.23325194
     20.72000000	      0.27085962	      7.12821483	      0.30973093	      3.17507963	     10.38113479
     20.73000000	      0.27078125	      6.99376984	      0.38517262	      3.18798864	     10.52540903
     20.74000000	      0.27072212	      6.86803146	      0.45108255	      3.20222861	     10.66519064
     20.75000000	      0.27068217	      6.74651499	      0.50818099	      3.21804641	     10.79779091
     20.76000000	      0.27066236	      6.62964677	      0.55615389	      3.23542475	     10.92173360
     20.77000000	      0.27066160	      6.51686930	      0.59521458	      3.25459621	     11.03730839
     20.78000000	      0.27067668	      6.40837223	      0.62571441	      3.27603666	     11.14679459
     20.79000000	      0.27070660	      6.30268380	      0.65118616	      3.29823083	     11.25136792
     20.80000000	      0.27074347	      6.20008811	      0.67296030	      3.32121628	     11.35374823
     20.81000000	      0.27077997	      6.09983029	      0.69366374	      3.34445461	     11.45558442
     20.82000000	      0.27081657	      6.00191982	      0.71558007	      3.36659500	     11.55749441
     20.83000000	      0.27084428	      5.90756403	      0.73986670	      3.38730981	     11.66023084
     20.84000000	      0.27086233	      5.81552490	      0.76656732	      3.40700863	     11.76403571
     20.85000000	      0.27087395	      5.72711259	      0.79518162	      3.42545149	     11.86876532
     20.86000000	      0.27087882	      5.64468704	      0.82328025	      3.44322427	     11.97255467
     20.87000000	      0.27088300	      5.56773796	      0.84933200	      3.46046079	     12.07292781
     20.88000000	      0.27088904	      5.49817805	      0.87153879	      3.47754814	     12.16952479
     20.89000000	      0.27089940	      5.43131011	      0.88883882	      3.49478613	     12.25494841
     20.90000000	      0.27091657	      5.36952546	      0.90279973	      3.51127928	     12.33387692
     20.91000000	      0.27093962	      5.31089580	      0.91237053	      3.52779193	     12.40383352
     20.92000000	      0.27096666	      5.25502373	      0.91966174	      3.54333400	     12.46497770
     20.93000000	      0.27099597	      5.20066667	      0.92536524	      3.55841945	     12.51946966
     20.94000000	      0.27102854	      5.14800400	      0.93146829	      3.57199913	     12.56809383
     20.95000000	      0.27105718	      5.09728334	      0.93835413	      3.58477163	     12.61322674
     20.96000000	      0.27107936	      5.04915781	      0.94619662	      3.59696937	     12.65562951
     20.97000000	      0.27109860	      5.00452792	      0.95577843	      3.60770098	     12.69613471
